<?xml version="1.0" encoding="iso-8859-1"?>
<!-- Generator: Adobe Illustrator 18.0.0, SVG Export Plug-In . SVG Version: 6.00 Build 0)  -->
<!DOCTYPE svg PUBLIC "-//W3C//DTD SVG 1.1//EN" "http://www.w3.org/Graphics/SVG/1.1/DTD/svg11.dtd">
<svg version="1.1" id="Capa_1" xmlns="http://www.w3.org/2000/svg" xmlns:xlink="http://www.w3.org/1999/xlink" x="0px" y="0px"
	 viewBox="0 0 66.361 66.361" style="enable-background:new 0 0 66.361 66.361;" xml:space="preserve">
<path style="fill:#231F20;" d="M48.185,58.595c-0.002-0.013,0.002-0.024-0.001-0.037c-0.014-0.062-1.304-6.2,2.356-12.725
	c2.426-3.641,4.459-8.401,4.459-14.143c0-8.254-6.551-12.674-12.244-14.961c-1.592-0.983-1.675-4.535-1.571-5.741
	c0.042-0.48-0.266-0.922-0.73-1.05l-3.582-0.987l0.408-1.55c0.141-0.534-0.178-1.081-0.712-1.222L35.887,6
	c0.823-0.374,1.963-1.15,2.366-2.68c0,0,0.48-1.818-3.812-2.949c-4.292-1.131-4.77,0.688-4.77,0.688
	c-0.403,1.53,0.206,2.767,0.738,3.498l-0.681-0.179c-0.257-0.07-0.529-0.031-0.758,0.103c-0.229,0.133-0.396,0.353-0.463,0.609
	L27.85,7.584c-0.141,0.534,0.178,1.081,0.712,1.222c0.537,0.143,1.081-0.178,1.222-0.712l0.403-1.528l4.905,1.292l-3.776,14.333
	l-0.742-0.196l0,0l-3.419-0.901h0l-0.743-0.196l0.643-2.44c0.042,0.001,0.083,0.008,0.125,0.008c2.078,0,3.9-1.405,4.43-3.417
	c0.312-1.185,0.145-2.419-0.472-3.477c-0.617-1.058-1.609-1.812-2.792-2.124c-0.383-0.101-0.777-0.152-1.17-0.152
	c-2.078,0-3.9,1.405-4.43,3.417c-0.561,2.128,0.479,4.306,2.37,5.259l-0.891,3.383c-0.068,0.256-0.031,0.529,0.103,0.758
	c0.133,0.229,0.353,0.396,0.609,0.463l0.743,0.196l-1.888,7.166c-0.141,0.534,0.178,1.081,0.712,1.222l3.419,0.901
	c0.084,0.022,0.169,0.033,0.255,0.033c0.175,0,0.35-0.046,0.503-0.136c0.229-0.133,0.396-0.353,0.463-0.609l1.888-7.166l0.743,0.196
	c0.084,0.022,0.169,0.033,0.255,0.033c0.175,0,0.35-0.046,0.503-0.136c0.229-0.133,0.396-0.353,0.463-0.609l1.873-7.109
	c3.168,0.571,18.132,3.867,18.132,15.132c0,10.056-7.029,17.056-10.149,19.667v-2.75c0-0.552-0.448-1-1-1H27.605
	c-0.552,0-1,0.448-1,1v3.658c-1.84-0.515-1.967-2.541-1.972-2.99v-6.12h5.403h4.868c0.552,0,1-0.448,1-1s-0.448-1-1-1h-3.868v-2.25
	c0-0.552-0.448-1-1-1H17.23c-0.552,0-1,0.448-1,1v2.25h-3.868c-0.552,0-1,0.448-1,1s0.448,1,1,1h4.868h5.404v6.12
	c0,1.615,0.863,4.538,3.972,5.031v2.725c-10.775,2.016-12.071,7.839-12.13,8.137c-0.058,0.293,0.02,0.597,0.209,0.828
	c0.19,0.231,0.473,0.365,0.772,0.365h38.542c0.299,0,0.582-0.134,0.772-0.365c0.19-0.23,0.267-0.534,0.209-0.828
	C54.934,64.93,54.089,61.129,48.185,58.595z M24.676,13.223c0.299-1.134,1.326-1.927,2.497-1.927c0.222,0,0.444,0.029,0.661,0.086
	c0.667,0.175,1.226,0.601,1.574,1.197s0.442,1.292,0.267,1.96c-0.356,1.349-1.794,2.199-3.157,1.841
	C25.139,16.017,24.314,14.6,24.676,13.223z M29.096,23.674l-1.633,6.199l-1.485-0.392l1.633-6.199l1.06,0.279L29.096,23.674z
	 M36.362,10.885l2.789,0.769c-0.017,0.961,0.053,2.544,0.538,3.999c-1.854-0.56-3.403-0.879-4.31-1.04L36.362,10.885z M18.23,39.906
	h10.807v1.25H18.23V39.906z M46.504,50.746c-0.712,3.088-0.613,5.653-0.453,7.069c-0.961-0.299-2.025-0.563-3.201-0.783v-3.125
	C43.481,53.452,44.873,52.383,46.504,50.746z M28.605,49.607H40.85v7.106c-1.803-0.232-3.835-0.364-6.123-0.364
	s-4.319,0.132-6.123,0.364V49.607z M16.978,64.361c1.262-2.048,5.312-6.013,17.75-6.013c12.282,0,16.406,3.959,17.719,6.013H16.978z
	"/>
<g>
</g>
<g>
</g>
<g>
</g>
<g>
</g>
<g>
</g>
<g>
</g>
<g>
</g>
<g>
</g>
<g>
</g>
<g>
</g>
<g>
</g>
<g>
</g>
<g>
</g>
<g>
</g>
<g>
</g>
</svg>
