<?xml version="1.0" encoding="iso-8859-1"?>
<!-- Generator: Adobe Illustrator 19.0.0, SVG Export Plug-In . SVG Version: 6.00 Build 0)  -->
<svg version="1.1" id="Layer_1" xmlns="http://www.w3.org/2000/svg" xmlns:xlink="http://www.w3.org/1999/xlink" x="0px" y="0px"
	 viewBox="0 0 460 460" style="enable-background:new 0 0 460 460;" xml:space="preserve">
<g id="XMLID_874_">
	<path id="XMLID_875_" style="fill:#F7CAC9;" d="M448.724,158.724C418.721,66.592,332.144,0,230,0C102.974,0,0,102.975,0,230
		c0,102.144,66.592,188.721,158.724,218.725C158.724,448.724,448.724,158.724,448.724,158.724z"/>
	<path id="XMLID_876_" style="fill:#EEA0A5;" d="M460,230c0-24.881-3.967-48.833-11.276-71.276L375,85L85,375l73.724,73.724
		C181.167,456.033,205.119,460,230,460C357.026,460,460,357.025,460,230z"/>
	<polygon id="XMLID_877_" style="fill:#BD0A13;" points="230,375 85,375 85,85 230,85 241.6,230 	"/>
	<rect id="XMLID_878_" x="230" y="85" style="fill:#941108;" width="145" height="290"/>
	<polygon id="XMLID_879_" style="fill:#DA5B66;" points="230,355 105,355 105,105 230,105 240,230 	"/>
	<rect id="XMLID_880_" x="230" y="105" style="fill:#D93722;" width="125" height="250"/>
	<rect id="XMLID_881_" x="133" y="135" style="fill:#FFFFFF;" width="20" height="35"/>
	<polygon id="XMLID_882_" style="fill:#FFFFFF;" points="230,195 201,195 201,135 181,135 181,275 201,275 201,215 230,215 240,205 
			"/>
	<polygon id="XMLID_883_" style="fill:#EEA0A5;" points="259,135 259,195 230,195 230,215 259,215 259,275 279,275 279,135 	"/>
	<polygon id="XMLID_884_" style="fill:#FFFFFF;" points="230,325 181,325 181,305 230,305 240,315 	"/>
	<rect id="XMLID_885_" x="230" y="305" style="fill:#EEA0A5;" width="49" height="20"/>
</g>
<g>
</g>
<g>
</g>
<g>
</g>
<g>
</g>
<g>
</g>
<g>
</g>
<g>
</g>
<g>
</g>
<g>
</g>
<g>
</g>
<g>
</g>
<g>
</g>
<g>
</g>
<g>
</g>
<g>
</g>
</svg>
